<?xml version="1.0" encoding="UTF-8" standalone="no"?>
<!-- Created with Inkscape (http://www.inkscape.org/) -->

<svg
   xmlns:dc="http://purl.org/dc/elements/1.1/"
   xmlns:cc="http://creativecommons.org/ns#"
   xmlns:rdf="http://www.w3.org/1999/02/22-rdf-syntax-ns#"
   xmlns:svg="http://www.w3.org/2000/svg"
   xmlns="http://www.w3.org/2000/svg"
   xmlns:sodipodi="http://sodipodi.sourceforge.net/DTD/sodipodi-0.dtd"
   xmlns:inkscape="http://www.inkscape.org/namespaces/inkscape"
   width="210mm"
   height="297mm"
   viewBox="0 0 210 297"
   version="1.1"
   id="svg8"
   inkscape:version="0.92.4 (unknown)"
   sodipodi:docname="logo.svg">
  <defs
     id="defs2" />
  <sodipodi:namedview
     id="base"
     pagecolor="#ffffff"
     bordercolor="#666666"
     borderopacity="1.0"
     inkscape:pageopacity="0.0"
     inkscape:pageshadow="2"
     inkscape:zoom="3.959798"
     inkscape:cx="319.96155"
     inkscape:cy="717.64441"
     inkscape:document-units="mm"
     inkscape:current-layer="layer1"
     showgrid="false"
     inkscape:window-width="1920"
     inkscape:window-height="1016"
     inkscape:window-x="0"
     inkscape:window-y="27"
     inkscape:window-maximized="1" />
  <metadata
     id="metadata5">
    <rdf:RDF>
      <cc:Work
         rdf:about="">
        <dc:format>image/svg+xml</dc:format>
        <dc:type
           rdf:resource="http://purl.org/dc/dcmitype/StillImage" />
        <dc:title></dc:title>
      </cc:Work>
    </rdf:RDF>
  </metadata>
  <g
     inkscape:label="Layer 1"
     inkscape:groupmode="layer"
     id="layer1">
    <g
       id="g4551"
       transform="translate(1.8040693,9.1539813)">
      <path
         inkscape:connector-curvature="0"
         id="path4533"
         d="m 60.571558,100.22836 c -0.09799,-0.008 -0.270999,-0.0279 -0.38446,-0.0434 -0.11346,-0.0156 -0.280937,-0.0335 -0.37217,-0.0397 -0.492888,-0.0337 -0.922946,-0.28753 -1.384218,-0.817063 -0.318511,-0.36565 -1.071426,-1.479692 -1.399513,-2.070793 -0.138711,-0.249911 -0.176648,-0.360319 -0.238075,-0.692892 -0.04981,-0.269715 -0.178688,-1.144721 -0.178688,-1.213233 0,-0.02207 -0.03278,-0.07569 -0.0729,-0.119189 -0.10793,-0.117091 -0.133128,-0.252092 -0.15229,-0.815939 -0.02584,-0.759559 -0.107872,-1.046221 -0.615635,-2.150798 -0.139205,-0.302825 -0.1693,-0.429274 -0.136769,-0.574653 0.02562,-0.114499 0.131401,-0.253687 0.232544,-0.305989 l 0.05709,-0.02953 -0.01226,-0.54708 c -0.02386,-1.061606 -0.08167,-2.08402 -0.136218,-2.408643 l -0.02936,-0.174769 0.04771,-0.09717 c 0.146451,-0.298412 0.731406,-0.870266 1.549792,-1.515081 0.496421,-0.391127 1.038049,-0.74819 1.134938,-0.74819 0.02181,0 0.09599,0.04492 0.16487,0.0998 0.151057,0.120378 0.360453,0.242472 0.511255,0.2981 0.08578,0.03164 0.15383,0.04117 0.299508,0.04192 0.180727,0.0011 0.194358,-0.0017 0.330007,-0.069 0.161088,-0.07961 0.301752,-0.198304 0.503884,-0.425169 0.495938,-0.556633 0.560569,-0.596848 0.877876,-0.54624 0.627101,0.100017 1.810705,0.719527 2.630868,1.377023 0.244311,0.195862 0.553299,0.515924 0.623052,0.645384 0.03084,0.05727 0.06049,0.150893 0.07079,0.223644 0.03834,0.270658 0.164051,0.379195 0.686756,0.592895 0.388781,0.158946 0.521541,0.248333 0.589079,0.39663 0.04657,0.102216 0.04356,0.175172 -0.01403,0.342069 -0.04226,0.122446 -0.04788,0.164337 -0.04049,0.303218 0.01181,0.222571 0.07439,0.3723 0.373997,0.894613 0.13544,0.236105 0.28363,0.508626 0.32932,0.605605 0.18862,0.400345 0.280234,0.79033 0.260355,1.108337 -0.02914,0.466058 -0.28765,1.196132 -0.660682,1.865765 -0.149774,0.268858 -0.16666,0.325326 -0.22268,0.744748 -0.05588,0.418439 -0.137103,0.646048 -0.28234,0.791284 -0.131714,0.131712 -0.230147,0.170775 -0.430462,0.170826 -0.09283,2e-5 -0.194106,-0.006 -0.225047,-0.01441 l -0.05628,-0.01451 -0.04112,0.230147 c -0.144605,0.809296 -0.725336,2.258945 -1.176311,2.936367 -0.415457,0.624057 -1.079474,1.202862 -1.789135,1.559516 -0.434591,0.21841 -0.648303,0.25435 -1.22249,0.2056 z M 59.19471,99.540678 c -0.0071,-0.121201 -0.01772,-0.237243 -0.02362,-0.257873 -0.02731,-0.09554 0.01823,5.65e-4 0.0674,0.142154 0.03016,0.08687 0.06413,0.182115 0.07546,0.211694 l 0.02062,0.05382 0.07518,-0.08536 c 0.08627,-0.09806 0.18222,-0.162824 0.241057,-0.162824 0.03776,0 0.03976,0.006 0.02851,0.09121 -0.01079,0.08153 -0.0075,0.09453 0.03164,0.121907 0.139052,0.09736 0.941524,-0.06118 1.421038,-0.280871 0.395909,-0.181359 0.779612,-0.529725 1.086817,-0.986724 0.220191,-0.327564 0.494183,-0.833625 0.564748,-1.043082 0.06798,-0.201807 0.04067,-0.340504 -0.06713,-0.340504 -0.06283,0 -0.09327,0.05956 -0.13912,0.271932 -0.06997,0.324188 -0.09193,0.326082 -0.07935,0.0071 0.01079,-0.273081 0.01062,-0.274543 -0.0317,-0.287967 -0.07763,-0.02459 -0.109133,0.03437 -0.140034,0.262388 -0.02515,0.185591 -0.05957,0.346945 -0.07401,0.346945 -0.0028,0 -0.0023,-0.08647 0.0023,-0.192234 0.0094,-0.239288 -0.01976,-0.358534 -0.08943,-0.365871 -0.07608,-0.0081 -0.09321,0.01502 -0.07372,0.09907 0.02272,0.09796 0.02237,0.273454 -5.68e-4,0.30897 -0.01392,0.02157 -0.01823,0.01451 -0.01845,-0.02983 -3.58e-4,-0.07287 -0.04412,-0.220321 -0.08295,-0.279581 -0.02623,-0.04001 -0.03584,-0.04283 -0.08607,-0.0253 -0.102778,0.03588 -0.08956,0.121605 0.06569,0.426241 0.08426,0.165354 0.103811,0.230651 0.08115,0.271136 -0.02607,0.04666 -0.06132,0.0389 -0.198315,-0.04374 -0.171191,-0.103252 -0.256585,-0.103907 -0.344926,-0.003 -0.0347,0.03981 -0.117987,0.162945 -0.185037,0.273665 -0.2731,0.451023 -0.50749,0.580096 -1.050231,0.578342 -0.54628,-0.002 -1.143503,-0.168942 -1.459838,-0.408664 -0.124519,-0.09433 -0.281767,-0.269413 -0.333625,-0.371415 -0.01675,-0.03296 -0.03282,-0.06259 -0.03573,-0.06601 -0.0028,-0.003 -0.04782,0.0091 -0.09981,0.02751 -0.05203,0.01844 -0.09976,0.02842 -0.106119,0.02207 -0.0063,-0.006 -0.0017,-0.04827 0.0105,-0.09312 0.0485,-0.179423 -0.01125,-0.45458 -0.209917,-0.966839 -0.09032,-0.232838 -0.114677,-0.317254 -0.113779,-0.394313 0.0034,-0.295454 0.228091,-0.688054 0.533638,-0.932522 0.167453,-0.133971 0.355495,-0.234361 0.467019,-0.24932 0.06345,-0.0086 0.08267,-0.0023 0.131952,0.04418 0.07308,0.06863 0.146287,0.222088 0.146526,0.307129 l 2.09e-4,0.06541 -0.04873,-0.06843 c -0.06244,-0.08778 -0.189218,-0.156999 -0.256523,-0.140108 -0.06342,0.01592 -0.209378,0.217973 -0.258584,0.357971 -0.06172,0.175593 -0.04112,0.274572 0.07804,0.374831 0.05549,0.04666 0.06767,0.04918 0.183527,0.03789 0.152983,-0.01492 0.194759,0.01179 0.293182,0.187799 0.204625,0.365912 0.438702,0.472933 0.648416,0.296472 0.07998,-0.06732 0.110826,-0.148634 0.110826,-0.29225 0,-0.181056 0.04668,-0.205828 0.429706,-0.22797 0.353853,-0.02046 0.563351,-0.06984 0.639249,-0.15059 0.0376,-0.04001 0.04163,-0.05916 0.03289,-0.155467 -0.02033,-0.224272 -0.192642,-0.454077 -0.340451,-0.454077 -0.07489,0 -0.163387,0.04324 -0.231385,0.113078 -0.07597,0.07801 -0.09368,0.161061 -0.05242,0.245658 l 0.03084,0.06319 -0.0564,-0.06027 c -0.146531,-0.156415 -0.11417,-0.401025 0.07262,-0.548974 0.128568,-0.101829 0.23673,-0.139307 0.404587,-0.140187 0.137626,-5.68e-4 0.163387,0.0056 0.290695,0.06907 0.07683,0.03845 0.325349,0.205685 0.55227,0.371705 1.168759,0.855071 1.534629,1.044835 1.877868,0.973995 0.151763,-0.03134 0.242336,-0.08143 0.354314,-0.196174 0.274169,-0.280811 0.428786,-0.843511 0.427844,-1.556965 -5.68e-4,-0.455302 -0.06109,-0.815801 -0.136893,-0.815801 -0.08274,0 -0.127069,0.03356 -0.140614,0.106481 -0.02056,0.110565 -0.13365,0.309913 -0.24676,0.434898 -0.111052,0.122717 -0.30132,0.258504 -0.460118,0.32837 -0.176308,0.07757 -0.198838,0.07223 -0.04401,-0.01045 0.213144,-0.113818 0.447738,-0.3486 0.543315,-0.54374 0.03873,-0.07916 0.0746,-0.180443 0.07963,-0.225093 l 0.0092,-0.08119 -0.131117,-0.03379 c -0.136423,-0.03515 -0.362749,-0.135531 -0.457212,-0.202791 -0.07121,-0.05071 -0.09454,-0.04351 -0.34383,0.106487 -0.113461,0.06826 -0.227393,0.125597 -0.253177,0.12742 -0.02823,0.0023 -0.08795,0.04293 -0.150035,0.102761 -0.236599,0.228109 -0.656486,0.347073 -1.072102,0.303752 -0.156533,-0.0163 -0.396886,-0.06763 -0.491077,-0.104835 -0.06268,-0.02476 0.01317,0.09074 0.122297,0.186191 0.116813,0.102181 0.166943,0.113289 0.503175,0.111489 0.349145,-0.0017 0.552907,-0.0646 0.731561,-0.225229 0.08377,-0.07532 0.131128,-0.0905 0.131128,-0.04209 0,0.03334 -0.158169,0.171152 -0.24965,0.217512 -0.166324,0.08428 -0.355347,0.122173 -0.619679,0.124222 l -0.241068,0.0017 0.06291,0.05214 c 0.118589,0.09834 0.17849,0.116334 0.391099,0.117458 0.10831,5.68e-4 0.243335,-0.01034 0.300065,-0.02425 0.132203,-0.03243 0.345959,-0.133458 0.439112,-0.207487 0.05577,-0.04435 0.07845,-0.05282 0.09785,-0.03675 0.03532,0.02931 0.0197,0.04685 -0.121918,0.137229 -0.136564,0.08717 -0.280131,0.148422 -0.424424,0.181089 -0.207704,0.04703 -0.676029,0.0071 -0.757577,-0.06463 -0.01653,-0.01454 -0.152779,-0.07759 -0.302724,-0.140074 -0.457421,-0.190608 -0.942818,-0.414639 -0.985726,-0.45495 l -0.04066,-0.03817 -0.05981,0.165296 c -0.07313,0.202087 -0.129328,0.403713 -0.161087,0.577885 -0.0222,0.121753 -0.02403,0.125154 -0.02556,0.04691 -0.0023,-0.116352 0.06238,-0.534035 0.116699,-0.754573 0.04015,-0.162951 0.04243,-0.192295 0.02147,-0.273066 -0.01289,-0.04975 -0.02959,-0.225678 -0.03709,-0.390911 l -0.01362,-0.300417 0.0632,-0.02595 c 0.03476,-0.01425 0.341706,-0.212315 0.682088,-0.440082 0.960874,-0.64297 1.275376,-0.815665 1.48543,-0.815665 0.196452,0 0.547944,0.202982 0.781612,0.451373 0.16667,0.177171 0.18352,0.159303 0.06781,-0.07189 -0.111763,-0.223293 -0.279512,-0.395721 -0.483149,-0.496631 l -0.160996,-0.07977 -0.217085,0.0011 c -0.185923,0.0011 -0.239968,0.0087 -0.376498,0.05378 -0.08768,0.02902 -0.200337,0.0734 -0.250354,0.09869 -0.05004,0.02528 -0.09445,0.04248 -0.09874,0.03817 -0.01459,-0.01459 0.320545,-0.160173 0.439338,-0.190847 0.471154,-0.12165 0.856562,0.0259 1.135982,0.434824 0.09003,0.131754 0.179251,0.350678 0.179938,0.441514 5e-4,0.06052 0.269675,0.432177 0.427048,0.58955 0.05418,0.05418 0.09846,0.113869 0.09846,0.132701 0,0.03834 -0.08517,0.124667 -0.194118,0.19676 l -0.07222,0.04776 0.04407,0.02873 c 0.103607,0.06751 0.303399,0.14707 0.438548,0.174632 0.257499,0.05254 0.450487,-0.0067 0.55067,-0.16872 0.03629,-0.05868 0.03765,-0.07473 0.01953,-0.22076 -0.06982,-0.561489 -0.416621,-1.165333 -0.834594,-1.4532 -0.11036,-0.07601 -0.194397,-0.212814 -0.287361,-0.467791 l -0.05009,-0.137485 -0.158844,-0.08653 c -0.446779,-0.243391 -0.519241,-0.262525 -0.993398,-0.26227 -0.464237,2.5e-4 -0.644867,0.03339 -1.590849,0.291978 -0.351207,0.096 -0.51577,0.120668 -0.215995,0.03237 0.09122,-0.02686 0.317762,-0.09576 0.503429,-0.153102 0.734929,-0.226973 1.04374,-0.283227 1.481579,-0.269897 0.343666,0.01045 0.446046,0.03442 0.725745,0.169783 0.09595,0.04646 0.176587,0.0823 0.179193,0.0797 0.0028,-0.0028 -0.03215,-0.14326 -0.07728,-0.312565 -0.107418,-0.403185 -0.198588,-0.790977 -0.310464,-1.320555 -0.05009,-0.23724 -0.09537,-0.418687 -0.100551,-0.403212 -0.0051,0.01545 -0.01965,0.07876 -0.03209,0.140653 -0.09783,0.485194 -0.545524,1.012623 -1.017189,1.19837 -0.221521,0.08724 -0.4957,0.09781 -0.670758,0.0259 l -0.06564,-0.02698 0.103147,-0.0339 c 0.274538,-0.0903 0.452782,-0.225292 0.545099,-0.412816 0.05498,-0.111729 0.05843,-0.130533 0.05225,-0.286497 -0.006,-0.151871 -0.01369,-0.181171 -0.0854,-0.324851 -0.07668,-0.153658 -0.251736,-0.392353 -0.287753,-0.392353 -0.0098,0 -0.01789,0.02061 -0.01789,0.04578 0,0.06257 -0.08359,0.290171 -0.16951,0.461596 -0.108373,0.216204 -0.285788,0.469791 -0.450185,0.643463 -0.340991,0.360237 -0.656436,0.528413 -1.030673,0.549488 -0.230964,0.01301 -0.403201,-0.02334 -0.626636,-0.132299 -0.149336,-0.07282 -0.401974,-0.242579 -0.43108,-0.289672 -0.0056,-0.0091 0.04651,5.68e-4 0.115863,0.02158 0.103477,0.03123 0.181465,0.03834 0.435494,0.03953 0.274542,0.0011 0.325303,-0.0034 0.450094,-0.04248 0.330649,-0.103296 0.611041,-0.306648 0.732589,-0.531315 0.05779,-0.106817 0.06421,-0.133606 0.06433,-0.268676 2.1e-4,-0.232731 -0.0068,-0.23744 -0.144828,-0.09823 -0.261037,0.263133 -0.693811,0.398306 -1.347723,0.420961 -0.595707,0.02061 -1.191186,-0.07391 -1.524645,-0.242069 -0.128421,-0.06476 -0.121191,-0.06995 -0.188002,0.135014 -0.05779,0.17729 -0.08602,0.316052 -0.08602,0.422891 0,0.04589 -0.0079,0.08347 -0.01738,0.08347 -0.02976,0 -0.109429,-0.191028 -0.132958,-0.318818 -0.01233,-0.06704 -0.02845,-0.151438 -0.03584,-0.187541 l -0.0134,-0.06564 -0.03135,0.10563 c -0.06677,0.2249 -0.08373,0.553253 -0.03947,0.764432 0.0097,0.04595 0.0063,0.04459 -0.05457,-0.02226 -0.07166,-0.07865 -0.13118,-0.221151 -0.170016,-0.407057 -0.0301,-0.143988 -0.02925,-0.146094 -0.09463,0.2438 -0.160763,0.959005 -0.254257,1.851363 -0.254257,2.426857 0,0.278137 0.0056,0.339849 0.03839,0.434903 0.05168,0.148985 0.167743,0.589005 0.167817,0.636182 4e-5,0.02078 0.02125,0.07565 0.04714,0.121901 0.186315,0.33301 0.283221,0.552572 0.336322,0.761956 0.04748,0.187257 0.03294,0.215705 -0.0251,0.04901 -0.05481,-0.157493 -0.17599,-0.386857 -0.256193,-0.484938 l -0.04447,-0.0544 -5.68e-4,0.239853 c -5.68e-4,0.25195 0.02692,0.564629 0.0573,0.648381 0.0099,0.0272 0.04668,0.07478 0.0818,0.105732 l 0.06387,0.05628 0.08513,0.60013 c 0.130311,0.918605 0.160951,1.050761 0.306568,1.322169 0.246709,0.459831 1.273513,1.99818 1.293571,1.938002 0.0081,-0.02419 -0.09056,-0.390523 -0.154022,-0.572154 -0.02567,-0.07347 -0.06865,-0.172358 -0.09555,-0.219867 l -0.0489,-0.08637 0.04816,0.05624 c 0.07313,0.08546 0.182936,0.306268 0.312446,0.628259 0.06431,0.159882 0.13674,0.330185 0.160957,0.378439 0.04612,0.09181 0.09466,0.142215 0.07588,0.07871 -0.01766,-0.05987 -0.07227,-0.527588 -0.06558,-0.562025 0.0034,-0.01784 0.05617,0.139735 0.117102,0.3503 0.06802,0.235086 0.124921,0.397336 0.147411,0.420365 0.03635,0.03729 0.03657,0.03538 0.02578,-0.253176 l -0.01084,-0.290688 0.09445,0.356328 c 0.08306,0.313354 0.119522,0.403211 0.163615,0.403211 0.0045,0 0.0023,-0.09917 -0.0045,-0.220361 z m 0.732737,-0.451577 c -0.08475,-0.09363 0.02465,-0.213771 0.138984,-0.152585 0.04157,0.02227 0.05043,0.127732 0.01375,0.164366 -0.03362,0.03366 -0.117511,0.02711 -0.152757,-0.01179 z m 1.313801,-0.01492 c -0.02902,-0.02903 -0.01255,-0.09857 0.0263,-0.110861 0.05526,-0.01754 0.108195,0.03588 0.08006,0.08073 -0.02164,0.03457 -0.08423,0.05221 -0.106373,0.03013 z m -3.594734,-1.788562 c 0.06392,-0.230671 -0.056,-0.534048 -0.253779,-0.641976 l -0.09377,-0.0512 0.07107,-4.34e-4 c 0.08097,-4.94e-4 0.191365,0.05019 0.250321,0.114953 0.150672,0.165485 0.176666,0.452464 0.05367,0.59228 l -0.04566,0.0519 0.01817,-0.06551 z m 4.963,-1.628276 c -0.01692,-0.01875 -0.03612,-0.06057 -0.04259,-0.09302 -0.0098,-0.04918 -0.0023,-0.06843 0.04521,-0.115991 0.03237,-0.03235 0.0768,-0.05704 0.102818,-0.05704 0.05978,0 0.137285,0.06198 0.152289,0.121766 0.01369,0.05442 -0.02845,0.149108 -0.07415,0.166644 -0.05967,0.02288 -0.152869,0.01149 -0.183571,-0.02237 z M 59.922478,95.42085 c -0.01704,-0.04444 0.0071,-0.08939 0.04418,-0.08224 0.02078,0.004 0.03289,0.02338 0.03289,0.05271 0,0.05341 -0.05919,0.07609 -0.07708,0.02953 z m 3.428444,-0.277071 c -0.03413,-0.03413 -0.02698,-0.09891 0.01505,-0.136978 0.03123,-0.02823 0.0456,-0.03033 0.08492,-0.01244 0.05985,0.02726 0.0757,0.06798 0.04912,0.126234 -0.02295,0.05037 -0.108628,0.0637 -0.149149,0.02317 z m -3.959395,-0.199842 c -0.0039,-0.111031 -0.204369,-0.775945 -0.229472,-0.760429 -0.0087,0.0051 -0.01584,0.02403 -0.01584,0.04146 -4e-5,0.09499 -0.190148,0.386141 -0.285419,0.437129 -0.03408,0.01823 -0.03306,0.01351 0.0089,-0.04242 0.124682,-0.166205 0.173774,-0.358533 0.144418,-0.565793 -0.02283,-0.161293 -0.03907,-0.197634 -0.123979,-0.278053 -0.06288,-0.05953 -0.171645,-0.128659 -0.202444,-0.128659 -0.0056,0 -0.01034,0.03431 -0.01034,0.07627 0,0.05378 0.01476,0.09565 0.05015,0.142011 0.0351,0.04606 0.05248,0.09485 0.0579,0.162848 0.0068,0.08457 -0.0023,0.116647 -0.06839,0.248492 -0.131385,0.261213 -0.367575,0.441366 -0.685917,0.523171 -0.146792,0.03771 -0.310191,0.03862 -0.310191,0.0017 0,-0.01823 0.02891,-0.03039 0.08908,-0.03743 0.230494,-0.02703 0.480344,-0.117225 0.601222,-0.217062 0.03561,-0.02942 0.0397,-0.04248 0.023,-0.07362 -0.03947,-0.07371 -0.07915,-0.07741 -0.198525,-0.01845 -0.123479,0.06096 -0.328683,0.110354 -0.458529,0.110354 -0.113273,0 -0.311799,-0.04345 -0.429274,-0.09401 -0.100188,-0.0431 -0.105311,-0.0489 -0.07935,-0.08987 0.01289,-0.02033 0.03056,-0.01766 0.09308,0.01425 0.128187,0.0654 0.314132,0.1004 0.471795,0.08881 0.245408,-0.01806 0.330046,-0.06102 0.250349,-0.127176 -0.0226,-0.01875 -0.09481,-0.02573 -0.267505,-0.02573 -0.228904,-3.3e-5 -0.240547,-0.0023 -0.360482,-0.06098 -0.146242,-0.07192 -0.25399,-0.181748 -0.334221,-0.340695 -0.03169,-0.06275 -0.06844,-0.114097 -0.0817,-0.114097 -0.05873,0 -0.06806,-0.04276 -0.02142,-0.09815 0.03311,-0.0393 0.04606,-0.07719 0.04606,-0.134316 0,-0.133093 0.05145,-0.269505 0.136382,-0.36165 0.106083,-0.115091 0.199831,-0.158891 0.369625,-0.172708 l 0.141011,-0.01147 -0.185167,-0.09945 c -0.101836,-0.05469 -0.24839,-0.142113 -0.325662,-0.194255 -0.128846,-0.08695 -0.1446,-0.09293 -0.189921,-0.07214 -0.04924,0.0226 -0.04901,0.02289 0.07248,0.0855 0.141244,0.07281 0.134065,0.07692 -0.05054,0.02896 -0.07424,-0.01931 -0.139637,-0.03039 -0.145345,-0.0247 -0.02573,0.02567 -0.0023,0.04709 0.106839,0.09835 l 0.117215,0.05498 -0.09377,-0.013 c -0.240859,-0.03334 -0.280568,-0.0011 -0.0915,0.07482 l 0.129005,0.05162 -0.121899,-0.01079 c -0.06705,-0.0059 -0.135963,-0.01476 -0.153143,-0.01959 -0.0172,-0.0051 -0.03663,-5.7e-5 -0.04322,0.01062 -0.0068,0.01096 0.03146,0.0397 0.08751,0.06589 l 0.0995,0.04646 -0.107839,-0.01102 c -0.138529,-0.01414 -0.142231,0.01596 -0.0094,0.07615 l 0.09845,0.04464 -0.110536,-0.0028 c -0.136911,-0.0034 -0.16073,0.0314 -0.04538,0.06643 l 0.0809,0.02453 -0.07501,0.0094 -0.07502,0.0094 0.0059,0.0844 c 0.0057,0.08212 0.0051,0.08326 -0.02448,0.04225 -0.122326,-0.169747 -0.156425,-0.465156 -0.08507,-0.736926 0.02328,-0.08881 0.0389,-0.19576 0.03543,-0.243012 -0.01136,-0.154346 0.0017,-0.343092 0.03021,-0.441701 0.03851,-0.132361 0.134895,-0.270431 0.22557,-0.323026 0.06439,-0.03737 0.09496,-0.04254 0.215774,-0.03657 0.120503,0.0059 0.167074,0.01937 0.323629,0.09355 0.181755,0.0861 0.943836,0.510302 0.979689,0.545337 0.01892,0.01851 -0.01886,-0.0011 -0.563108,-0.294414 -0.573511,-0.308914 -0.774189,-0.362589 -0.94166,-0.251871 -0.119372,0.07892 -0.194419,0.247469 -0.206788,0.464418 -0.01045,0.183412 0.0057,0.211906 0.05818,0.10204 0.05219,-0.109502 0.215569,-0.270317 0.274582,-0.270317 0.03209,0 0.176331,0.07942 0.395801,0.217897 0.948692,0.598598 1.41044,0.880733 1.592035,0.972755 0.08363,0.04237 0.09562,0.05668 0.122156,0.145514 0.01619,0.05418 0.04168,0.178699 0.05662,0.27669 0.015,0.09799 0.03595,0.207697 0.04657,0.2438 0.07649,0.259424 0.203455,0.980132 0.182129,1.033824 -0.0057,0.01459 -0.0109,0.0066 -0.0117,-0.0184 z m -1.342402,-0.712601 c 0.03431,-0.02198 0.0326,-0.02323 -0.01948,-0.01465 -0.08825,0.01448 -0.320277,-0.02067 -0.416195,-0.06312 -0.127143,-0.05623 -0.243312,-0.159565 -0.307726,-0.273708 -0.05651,-0.100107 -0.05711,-0.100521 -0.100047,-0.06824 l -0.04322,0.03248 0.038,0.07502 c 0.07646,0.15095 0.213514,0.274043 0.357188,0.3208 0.09874,0.03215 0.437169,0.02623 0.491486,-0.0086 z m 0.07496,-0.0975 c 0.120554,-0.01744 0.138524,-0.02618 0.221021,-0.107412 0.14594,-0.143749 0.188802,-0.216523 0.173996,-0.295443 -0.02414,-0.128557 -0.174865,-0.253262 -0.335322,-0.277394 l -0.07164,-0.01079 0.06589,0.07294 c 0.190699,0.211083 0.0519,0.525267 -0.232016,0.525267 -0.08823,0 -0.120072,-0.0095 -0.18197,-0.05435 -0.07884,-0.05711 -0.136895,-0.167743 -0.136895,-0.260873 0,-0.07917 0.07669,-0.213757 0.150037,-0.263309 l 0.06564,-0.04435 -0.122831,0.0074 c -0.15242,0.0091 -0.311856,0.08252 -0.383669,0.176676 -0.05071,0.06648 -0.05071,0.0667 -0.01931,0.149048 0.03992,0.104561 0.179675,0.260912 0.279869,0.313133 0.08235,0.04293 0.247299,0.08529 0.339685,0.08727 0.03095,5.68e-4 0.115311,-0.0074 0.18749,-0.01778 z m -0.2573,-0.384573 c 0.04589,-0.03215 0.05651,-0.117294 0.0192,-0.154596 -0.05429,-0.05429 -0.183788,-0.0023 -0.183788,0.07417 0,0.03959 0.06324,0.109622 0.09897,0.109622 0.01317,0 0.04271,-0.01312 0.06564,-0.02919 z m -0.411908,-0.40315 c 0.152818,-0.04787 0.447153,-0.05293 0.659883,-0.01142 0.07736,0.01511 0.143567,0.0247 0.147116,0.02129 0.01238,-0.01181 -0.157351,-0.110046 -0.278393,-0.161115 -0.191796,-0.08092 -0.346034,-0.101149 -0.490345,-0.06432 -0.149075,0.03805 -0.235889,0.105571 -0.302018,0.234929 -0.08147,0.159378 -0.06996,0.184583 0.04339,0.09498 0.05668,-0.04481 0.145497,-0.0909 0.220361,-0.114341 z m 2.103949,-1.361286 c -0.02578,-0.0039 -0.110177,-0.01595 -0.187535,-0.02698 -0.561903,-0.08032 -1.628599,-0.380575 -2.17021,-0.610864 -0.283669,-0.120611 -0.400355,-0.149632 -0.475856,-0.118356 -0.03243,0.01346 -0.07482,0.05043 -0.09419,0.08218 -0.02181,0.03578 -0.03526,0.04606 -0.03526,0.02692 -4.1e-5,-0.01698 0.02544,-0.05814 0.05662,-0.09152 0.05599,-0.05993 0.05836,-0.06056 0.192227,-0.05077 0.09554,0.007 0.194141,0.03243 0.334079,0.08613 0.744163,0.285645 2.115053,0.602732 2.605874,0.602732 0.177495,0 0.292001,-0.02981 0.98129,-0.255648 1.297826,-0.425169 1.611147,-0.453684 2.131233,-0.193942 0.242341,0.121026 0.421642,0.278984 0.499692,0.440207 0.03028,0.06255 0.02647,0.05826 -0.08162,-0.09114 -0.104686,-0.144725 -0.351133,-0.289031 -0.677863,-0.396914 -0.146701,-0.04845 -0.171111,-0.05106 -0.384459,-0.04129 -0.298645,0.01363 -0.560745,0.08157 -1.390574,0.360356 -0.792812,0.266347 -0.888979,0.291654 -1.09596,0.28836 -0.08832,-0.0011 -0.181664,-0.0056 -0.207453,-0.0095 z m 1.725386,-0.01539 c 0,-0.0051 0.03373,-0.02658 0.07502,-0.04765 0.04123,-0.02107 0.07501,-0.03407 0.07501,-0.0289 0,0.0051 -0.03373,0.02658 -0.07501,0.04765 -0.04123,0.02107 -0.07502,0.03407 -0.07502,0.0289 z M 56.57988,91.434181 c 0,-0.02578 0.0039,-0.03635 0.0095,-0.02345 0.0051,0.01289 0.0051,0.03401 0,0.04691 -0.0051,0.01289 -0.0095,0.0023 -0.0095,-0.02345 z m 3.519302,-0.08783 c 0.01351,-0.0056 0.0297,-0.0045 0.03595,0.0017 0.0062,0.0062 -0.0051,0.01067 -0.02459,0.0098 -0.02187,-0.0011 -0.02629,-0.0051 -0.01136,-0.0113 z m 0.07502,-0.01875 c 0.01351,-0.0056 0.0297,-0.0045 0.03595,0.0017 0.0062,0.0062 -0.0051,0.01067 -0.02459,0.0098 -0.02187,-0.0011 -0.02629,-0.0051 -0.0113,-0.0113 z m 0.05978,6.950203 c 0.172861,-0.02671 0.48106,-0.134363 0.722031,-0.252289 0.318103,-0.155649 0.481638,-0.322757 0.508632,-0.519706 0.01039,-0.07589 0.006,-0.09181 -0.03657,-0.134455 -0.08529,-0.08526 -0.248242,-0.07085 -0.938821,0.08304 -0.690858,0.153976 -1.023039,0.213297 -1.128083,0.201455 -0.11262,-0.0127 -0.189416,-0.05654 -0.353893,-0.201969 -0.265303,-0.234592 -0.424409,-0.22274 -0.454804,0.03386 l -0.01119,0.09443 0.141051,0.17514 c 0.17959,0.222992 0.361685,0.397638 0.455888,0.437236 0.257805,0.108372 0.710143,0.142718 1.095767,0.08325 z m 0.319853,-1.049501 c 0.357159,-0.08839 0.506388,-0.116565 0.675455,-0.127621 0.240421,-0.01572 0.308607,-0.04495 0.366711,-0.157312 0.04271,-0.08254 0.02436,-0.176803 -0.07356,-0.377431 -0.09476,-0.194199 -0.177666,-0.314725 -0.248356,-0.361045 -0.07745,-0.05079 -0.100259,-0.0091 -0.120952,0.218971 -0.02522,0.278362 -0.05979,0.37597 -0.155431,0.438627 -0.07052,0.04626 -1.02355,0.178708 -1.287603,0.17901 -0.213524,2.93e-4 -0.267766,-0.03396 -0.458568,-0.289256 -0.157924,-0.211312 -0.237122,-0.291958 -0.28673,-0.291958 -0.0472,0 -0.172372,-0.07377 -0.24003,-0.141408 -0.09208,-0.09212 -0.156067,-0.227658 -0.173593,-0.367837 l -0.01488,-0.119015 -0.06918,0.160497 c -0.153936,0.357144 -0.197985,0.690674 -0.112858,0.854557 0.06919,0.133205 0.128097,0.168297 0.307102,0.182901 0.304875,0.02489 0.481399,0.05966 0.878717,0.173014 0.233782,0.06672 0.472942,0.126946 0.544904,0.137256 0.0057,5.64e-4 0.216711,-0.04959 0.468855,-0.11195 z m 4.765099,-2.109481 c 0.186633,-0.131169 0.257209,-0.298822 0.326894,-0.776506 0.0247,-0.16951 0.04146,-0.311725 0.03714,-0.316024 -0.0045,-0.0045 -0.03578,0.01312 -0.07,0.03873 -0.159361,0.119339 -0.24096,0.12804 -0.239518,0.02556 5.67e-4,-0.05248 0.02436,-0.07746 0.21516,-0.227631 0.207038,-0.162951 0.218107,-0.175399 0.325252,-0.365706 0.12875,-0.228684 0.193858,-0.366877 0.331381,-0.703381 0.125586,-0.307289 0.177608,-0.504741 0.177608,-0.674114 0,-0.229415 -0.05349,-0.339054 -0.222712,-0.456297 -0.09203,-0.06377 -0.111639,-0.06979 -0.225053,-0.06915 -0.174281,0.0011 -0.377611,0.06702 -0.473722,0.153852 -0.08524,0.07701 -0.204716,0.240858 -0.295863,0.405745 -0.07813,0.14133 -0.305142,0.652187 -0.294533,0.662796 0.02562,0.02561 0.327548,-0.179932 0.42869,-0.291887 0.03754,-0.04157 0.09006,-0.121617 0.116681,-0.177898 0.09416,-0.199048 0.453014,-0.481314 0.611966,-0.48136 0.108344,-4e-5 0.147582,0.122758 0.146832,0.45946 -5.67e-4,0.368445 -0.0159,0.451913 -0.109434,0.606741 -0.04481,0.07412 -0.08669,0.137968 -0.09311,0.141886 -0.0065,0.0039 -0.0125,-0.124938 -0.0134,-0.286356 -0.0023,-0.425179 -0.03987,-0.522852 -0.174974,-0.457414 -0.07578,0.03669 -0.18364,0.178613 -0.200217,0.263439 -0.0094,0.04804 -0.0034,0.07133 0.02675,0.10338 0.02136,0.02278 0.05821,0.08348 0.08184,0.134923 0.05554,0.120884 0.0581,0.341654 0.0059,0.506127 -0.03765,0.118703 -0.118668,0.21027 -0.456285,0.515735 -0.111922,0.101268 -0.134724,0.131731 -0.134684,0.179949 4e-5,0.03521 0.01562,0.07211 0.03959,0.09377 0.08458,0.07643 0.182611,0.340689 0.156686,0.422374 -0.01675,0.05282 -0.06578,0.04322 -0.188627,-0.03698 -0.15037,-0.09817 -0.273923,-0.210906 -0.31524,-0.287622 l -0.03431,-0.06368 0.08917,-0.22423 c 0.0772,-0.194106 0.08912,-0.242022 0.08875,-0.356687 -5e-4,-0.150082 -0.04737,-0.267387 -0.127881,-0.320153 -0.05904,-0.03867 -0.06869,-0.02789 -0.108702,0.121452 -0.04203,0.15677 -0.105589,0.27925 -0.185593,0.357476 l -0.06512,0.06368 0.04521,0.161298 c 0.06461,0.230613 0.185095,0.726477 0.235128,0.967734 0.04265,0.20555 0.04305,0.206379 0.108429,0.229607 0.03629,0.01289 0.129891,0.02125 0.20947,0.01869 0.1257,-0.0039 0.153988,-0.01175 0.224457,-0.06131 z m -3.194998,-0.919648 c 0.181158,-0.04435 0.351753,-0.133253 0.475334,-0.247667 l 0.107481,-0.0995 -0.02834,-0.08318 -0.02834,-0.08318 -0.06131,0.09111 c -0.219329,0.325917 -0.639137,0.440184 -1.18265,0.321908 -0.288872,-0.06287 -0.317086,-0.06552 -0.34459,-0.03237 -0.02084,0.02511 -0.01437,0.03328 0.04577,0.05841 0.280159,0.117055 0.713211,0.148775 1.016644,0.07446 z m -0.0017,-0.165164 c 0.122201,-0.0393 0.314331,-0.168135 0.387202,-0.259646 0.06661,-0.08365 0.05967,-0.09695 -0.106742,-0.204829 -0.19108,-0.123854 -0.449709,-0.199837 -0.596064,-0.17511 l -0.07364,0.01244 0.06524,0.0722 c 0.126825,0.140387 0.127211,0.313185 0.0011,0.439413 -0.113523,0.113523 -0.265308,0.127824 -0.404347,0.03811 -0.09127,-0.05891 -0.134475,-0.154999 -0.126473,-0.281335 0.0051,-0.08129 0.0017,-0.09614 -0.01846,-0.07936 -0.04578,0.03811 -0.09708,0.161666 -0.09708,0.233907 0,0.129897 0.06202,0.17181 0.339326,0.229301 0.128755,0.02669 0.517167,0.01125 0.6301,-0.0251 z m -0.497359,-0.324106 c 0.06418,-0.05808 0.02033,-0.175257 -0.0656,-0.175257 -0.05021,0 -0.106408,0.05276 -0.106408,0.09989 0,0.08989 0.105079,0.135934 0.172003,0.07537 z m -0.44742,-0.250707 c 0.09451,-0.05577 0.345199,-0.1436 0.479157,-0.167891 0.27436,-0.04975 0.665925,-0.01312 0.913604,0.08544 0.0627,0.02493 0.142874,0.04504 0.178165,0.04459 l 0.06417,-5.68e-4 -0.07502,-0.06633 c -0.09884,-0.08739 -0.308557,-0.186173 -0.455519,-0.214563 -0.168727,-0.0326 -0.504174,-0.01323 -0.669731,0.03868 -0.18168,0.05696 -0.364508,0.156102 -0.450748,0.244421 -0.08151,0.08347 -0.07789,0.09176 0.0159,0.0364 z m 1.997049,-0.02209 c 0.03805,-0.03805 0.02539,-0.05254 -0.04606,-0.05254 -0.06735,0 -0.06796,5.69e-4 -0.03459,0.03748 0.03948,0.04362 0.05009,0.0456 0.08064,0.015 z M 63.146393,93.343 c 0.08216,-0.0297 0.05912,-0.08125 -0.03425,-0.07658 -0.07295,0.0034 -0.07343,0.0034 -0.02232,-0.01789 0.03112,-0.01289 0.04981,-0.03334 0.04623,-0.0506 -0.0045,-0.0225 -0.02902,-0.02811 -0.108469,-0.02505 l -0.102471,0.0039 0.07946,-0.03584 c 0.0595,-0.02686 0.07648,-0.04356 0.06762,-0.06668 -0.0098,-0.02545 -0.03015,-0.0289 -0.116964,-0.01994 l -0.10513,0.0109 0.07946,-0.03635 c 0.05961,-0.02726 0.07648,-0.04407 0.06757,-0.0673 -0.01187,-0.03095 -0.046,-0.03056 -0.193908,0.0023 -0.02675,0.0059 -0.0076,-0.0109 0.04464,-0.03907 0.08016,-0.04328 0.08811,-0.05282 0.06417,-0.07676 -0.02232,-0.02232 -0.04384,-0.02362 -0.117442,-0.0072 -0.114427,0.02567 -0.12508,0.01545 -0.02908,-0.02789 0.08054,-0.03629 0.08898,-0.0497 0.05117,-0.08111 -0.01647,-0.01369 -0.04975,-0.0142 -0.105624,-0.0017 -0.09828,0.02209 -0.117823,0.01209 -0.0397,-0.02022 0.03129,-0.01295 0.05686,-0.03118 0.05686,-0.04043 0,-0.02323 -0.160128,-0.12282 -0.239763,-0.149104 -0.03726,-0.01226 -0.12717,-0.01795 -0.209549,-0.01317 -0.177484,0.01028 -0.307284,0.06706 -0.607122,0.265614 -0.115209,0.07629 -0.2369,0.152591 -0.270425,0.16955 -0.04504,0.02278 -0.06095,0.04345 -0.06095,0.07923 0,0.03334 0.008,0.04532 0.02573,0.03851 0.01414,-0.0056 0.08378,-0.02703 0.154721,-0.04799 0.547972,-0.161961 1.033955,-0.06409 1.423021,0.286583 0.05673,0.05112 0.104884,0.08036 0.121899,0.07402 0.01545,-0.0057 0.05179,-0.01908 0.08067,-0.02953 z m -7.150116,-1.37658 c -0.0314,-0.142983 -0.05711,-0.29542 -0.05711,-0.338742 0,-0.04334 -0.0078,-0.08357 -0.01726,-0.08944 -0.02919,-0.018 -0.129744,0.122457 -0.142744,0.199389 -0.0068,0.04015 -0.0017,0.116573 0.01119,0.170617 0.01886,0.07857 0.04571,0.121094 0.136071,0.215205 0.06193,0.06451 0.115829,0.114063 0.119775,0.110111 0.0039,-0.0039 -0.01851,-0.124167 -0.04992,-0.267148 z"
         style="fill:#000000;stroke-width:0.01875414" />
      <g
         id="g4543">
        <text
           xml:space="preserve"
           style="font-style:normal;font-weight:normal;font-size:10.0689888px;line-height:1.25;font-family:sans-serif;letter-spacing:0px;word-spacing:0px;fill:#000000;fill-opacity:1;stroke:none;stroke-width:0.25172469"
           x="69.186378"
           y="93.111443"
           id="text4520"><tspan
             sodipodi:role="line"
             id="tspan4518"
             x="69.186378"
             y="93.111443"
             style="font-style:normal;font-variant:normal;font-weight:bold;font-stretch:normal;font-size:10.0689888px;font-family:Comfortaa;-inkscape-font-specification:'Comfortaa, Bold';font-variant-ligatures:normal;font-variant-caps:normal;font-variant-numeric:normal;font-feature-settings:normal;text-align:start;writing-mode:lr-tb;text-anchor:start;stroke-width:0.25172469">penkins</tspan></text>
        <text
           xml:space="preserve"
           style="font-style:normal;font-variant:normal;font-weight:normal;font-stretch:normal;font-size:4.03550005px;line-height:1.25;font-family:Comfortaa;-inkscape-font-specification:'Comfortaa, Normal';font-variant-ligatures:normal;font-variant-caps:normal;font-variant-numeric:normal;font-feature-settings:normal;text-align:start;letter-spacing:0px;word-spacing:0px;writing-mode:lr-tb;text-anchor:start;fill:#000000;fill-opacity:1;stroke:none;stroke-width:0.10088749"
           x="69.84642"
           y="99.303696"
           id="text4537"><tspan
             sodipodi:role="line"
             id="tspan4535"
             x="69.84642"
             y="99.303696"
             style="font-style:normal;font-variant:normal;font-weight:normal;font-stretch:normal;font-size:4.03550005px;font-family:Comfortaa;-inkscape-font-specification:'Comfortaa, Normal';font-variant-ligatures:normal;font-variant-caps:normal;font-variant-numeric:normal;font-feature-settings:normal;text-align:start;writing-mode:lr-tb;text-anchor:start;stroke-width:0.10088749">open source ci tool</tspan></text>
      </g>
    </g>
  </g>
</svg>
